{
  "accessors": [
    {
      "bufferView": 2,
      "componentType": 5126,
      "count": 63,
      "max": [
        126.7578125,
        54.58984375,
        83.3984375
      ],
      "min": [
        -30.56640625,
        -54.541015625,
        24.5361328125
      ],
      "type": "VEC3"
    },
    {
      "bufferView": 2,
      "byteOffset": 756,
      "componentType": 5126,
      "count": 63,
      "max": [
        -0.18911713361740112,
        0.9061862826347351,
        -0.37823426723480225
      ],
      "min": [
        -0.36320820450782776,
        -0.9061862826347351,
        -0.9379387497901917
      ],
      "type": "VEC3"
    },
    {
      "bufferView": 1,
      "componentType": 5126,
      "count": 63,
      "max": [
        0.94970703125,
        5.40234375
      ],
      "min": [
        -3.072265625,
        -3.921875
      ],
      "type": "VEC2"
    },
    {
      "bufferView": 1,
      "byteOffset": 504,
      "componentType": 5126,
      "count": 63,
      "max": [
        0.95068359375,
        0.9980316162109375
      ],
      "min": [
        0.0019683837890625,
        0.03125
      ],
      "type": "VEC2"
    },
    {
      "bufferView": 0,
      "componentType": 5125,
      "count": 108,
      "type": "SCALAR"
    },
    {
      "bufferView": 2,
      "byteOffset": 1512,
      "componentType": 5126,
      "count": 57,
      "max": [
        56.984375,
        2.95556640625,
        31.2255859375
      ],
      "min": [
        52.734375,
        -3.167724609375,
        23.30322265625
      ],
      "type": "VEC3"
    },
    {
      "bufferView": 2,
      "byteOffset": 2196,
      "componentType": 5126,
      "count": 57,
      "max": [
        -0.65092533826828,
        0.36301589012145996,
        0.7491470575332642
      ],
      "min": [
        -0.9954954981803894,
        -0.36301589012145996,
        0.09480909258127213
      ],
      "type": "VEC3"
    },
    {
      "bufferView": 1,
      "byteOffset": 1008,
      "componentType": 5126,
      "count": 57,
      "max": [
        1.744140625,
        0.8433837890625
      ],
      "min": [
        1.6826171875,
        0.7548828125
      ],
      "type": "VEC2"
    },
    {
      "bufferView": 1,
      "byteOffset": 1464,
      "componentType": 5126,
      "count": 57,
      "max": [
        0.98828125,
        0.87994384765625
      ],
      "min": [
        0.95068359375,
        0.8538818359375
      ],
      "type": "VEC2"
    },
    {
      "bufferView": 0,
      "byteOffset": 432,
      "componentType": 5125,
      "count": 240,
      "type": "SCALAR"
    },
    {
      "bufferView": 2,
      "byteOffset": 2880,
      "componentType": 5126,
      "count": 14937,
      "max": [
        128.7109375,
        53.759765625,
        77.392578125
      ],
      "min": [
        -16.296875,
        -53.759765625,
        8.1298828125
      ],
      "type": "VEC3"
    },
    {
      "bufferView": 2,
      "byteOffset": 182124,
      "componentType": 5126,
      "count": 14937,
      "max": [
        0.9998760223388672,
        1.0,
        1.0
      ],
      "min": [
        -1.0,
        -1.0,
        -0.9986079335212708
      ],
      "type": "VEC3"
    },
    {
      "bufferView": 3,
      "componentType": 5126,
      "count": 14937,
      "max": [
        0.9993805885314941,
        1.0,
        1.0,
        1.0
      ],
      "min": [
        -0.9998760223388672,
        -1.0,
        -0.9999690055847168,
        -1.0
      ],
      "type": "VEC4"
    },
    {
      "bufferView": 1,
      "byteOffset": 1920,
      "componentType": 5126,
      "count": 14937,
      "max": [
        1.99609375,
        0.9978961944580078
      ],
      "min": [
        0.0023632049560546875,
        0.0029296875
      ],
      "type": "VEC2"
    },
    {
      "bufferView": 1,
      "byteOffset": 121416,
      "componentType": 5126,
      "count": 14937,
      "max": [
        0.998046875,
        0.9980316162109375
      ],
      "min": [
        0.0019683837890625,
        0.001953125
      ],
      "type": "VEC2"
    },
    {
      "bufferView": 1,
      "byteOffset": 240912,
      "componentType": 5126,
      "count": 14937,
      "max": [
        1.99609375,
        0.9978961944580078
      ],
      "min": [
        0.0023632049560546875,
        0.0029296875
      ],
      "type": "VEC2"
    },
    {
      "bufferView": 0,
      "byteOffset": 1392,
      "componentType": 5125,
      "count": 44343,
      "type": "SCALAR"
    },
    {
      "bufferView": 2,
      "byteOffset": 361368,
      "componentType": 5126,
      "count": 552,
      "max": [
        60.64453125,
        16.02783203125,
        33.7646484375
      ],
      "min": [
        56.203125,
        -16.1865234375,
        28.5888671875
      ],
      "type": "VEC3"
    },
    {
      "bufferView": 2,
      "byteOffset": 367992,
      "componentType": 5126,
      "count": 552,
      "max": [
        0.3929705321788788,
        0.9979910850524902,
        0.9195510745048523
      ],
      "min": [
        -0.9905305504798889,
        -0.9979910850524902,
        -0.858880341053009
      ],
      "type": "VEC3"
    },
    {
      "bufferView": 1,
      "byteOffset": 360408,
      "componentType": 5126,
      "count": 552,
      "max": [
        -0.10711669921875,
        3.478515625
      ],
      "min": [
        -0.9150390625,
        1.46337890625
      ],
      "type": "VEC2"
    },
    {
      "bufferView": 1,
      "byteOffset": 364824,
      "componentType": 5126,
      "count": 552,
      "max": [
        0.99658203125,
        0.94293212890625
      ],
      "min": [
        0.0216522216796875,
        0.08447265625
      ],
      "type": "VEC2"
    },
    {
      "bufferView": 0,
      "byteOffset": 178764,
      "componentType": 5125,
      "count": 2046,
      "type": "SCALAR"
    }
  ],
  "asset": {
    "extras": {
      "author": "_Vadim2020_ (https://sketchfab.com/Maha_Knox)",
      "license": "CC-BY-4.0 (http://creativecommons.org/licenses/by/4.0/)",
      "source": "https://sketchfab.com/3d-models/x-wing-t65-cockpit-bbbed2d66c4e4601a91d3f109cac6968",
      "title": "X-Wing T65 Cockpit"
    },
    "generator": "Sketchfab-12.67.0",
    "version": "2.0"
  },
  "bufferViews": [
    {
      "buffer": 0,
      "byteLength": 186948,
      "name": "floatBufferViews",
      "target": 34963
    },
    {
      "buffer": 0,
      "byteLength": 369240,
      "byteOffset": 186948,
      "byteStride": 8,
      "name": "floatBufferViews",
      "target": 34962
    },
    {
      "buffer": 0,
      "byteLength": 374616,
      "byteOffset": 556188,
      "byteStride": 12,
      "name": "floatBufferViews",
      "target": 34962
    },
    {
      "buffer": 0,
      "byteLength": 238992,
      "byteOffset": 930804,
      "byteStride": 16,
      "name": "floatBufferViews",
      "target": 34962
    }
  ],
  "buffers": [
    {
      "byteLength": 1169796,
      "uri": "scene.bin"
    }
  ],
  "images": [
    {
      "uri": "textures/Heroship_Glass_metallicRoughness.png"
    },
    {
      "uri": "textures/T_XWingCockpitScreen_01_C_Mat_baseColor.png"
    },
    {
      "uri": "textures/T_XWingCockpitScreen_01_C_Mat_metallicRoughness.png"
    },
    {
      "uri": "textures/T_XWingCockpit_01_CS_Mat_metallicRoughness.png"
    },
    {
      "uri": "textures/T_XWingCockpit_01_CS_Mat_normal.png"
    }
  ],
  "materials": [
    {
      "alphaMode": "BLEND",
      "doubleSided": true,
      "name": "Heroship_Glass",
      "pbrMetallicRoughness": {
        "baseColorFactor": [
          0.0,
          0.0,
          0.0,
          0.45772303595206393
        ],
        "metallicFactor": 0.17195489727547442,
        "metallicRoughnessTexture": {
          "index": 0
        },
        "roughnessFactor": 0.396921304318747
      }
    },
    {
      "doubleSided": true,
      "name": "T_XWingCockpitScreen_01_C_Mat",
      "pbrMetallicRoughness": {
        "baseColorTexture": {
          "index": 1
        },
        "metallicRoughnessTexture": {
          "index": 2
        }
      }
    },
    {
      "doubleSided": true,
      "name": "T_XWingCockpit_01_CS_Mat",
      "normalTexture": {
        "index": 4
      },
      "occlusionTexture": {
        "index": 3
      },
      "pbrMetallicRoughness": {
        "baseColorTexture": {
          "index": 1
        },
        "metallicRoughnessTexture": {
          "index": 3
        }
      }
    },
    {
      "doubleSided": true,
      "emissiveFactor": [
        1.0,
        1.0,
        1.0
      ],
      "emissiveTexture": {
        "index": 1
      },
      "name": "T_XWingCockpit_01_emissive_Mat",
      "pbrMetallicRoughness": {
        "baseColorFactor": [
          0.215861,
          0.215861,
          0.215861,
          1.0
        ],
        "metallicFactor": 0.0,
        "roughnessFactor": 0.9577051494623774
      }
    }
  ],
  "meshes": [
    {
      "name": "SM_MERGED_vehicle_air_xwing_t65_cockpit_cutscene_mesh_Window_shader_20_Heroship_Glass__0",
      "primitives": [
        {
          "attributes": {
            "NORMAL": 1,
            "POSITION": 0,
            "TEXCOORD_0": 2,
            "TEXCOORD_1": 3
          },
          "indices": 4,
          "material": 0,
          "mode": 4
        }
      ]
    },
    {
      "name": "SM_MERGED_vehicle_air_xwing_t65_cockpit_cutscene_mesh_Window_shader_20_T_XWingCockpitScreen_01_C_Mat_0",
      "primitives": [
        {
          "attributes": {
            "NORMAL": 6,
            "POSITION": 5,
            "TEXCOORD_0": 7,
            "TEXCOORD_1": 8
          },
          "indices": 9,
          "material": 1,
          "mode": 4
        }
      ]
    },
    {
      "name": "SM_MERGED_vehicle_air_xwing_t65_cockpit_cutscene_mesh_Window_shader_20_T_XWingCockpit_01_CS_Mat_0",
      "primitives": [
        {
          "attributes": {
            "NORMAL": 11,
            "POSITION": 10,
            "TANGENT": 12,
            "TEXCOORD_0": 13,
            "TEXCOORD_1": 14,
            "TEXCOORD_2": 15
          },
          "indices": 16,
          "material": 2,
          "mode": 4
        }
      ]
    },
    {
      "name": "SM_MERGED_vehicle_air_xwing_t65_cockpit_cutscene_mesh_Window_shader_20_T_XWingCockpit_01_emissive_Mat_0",
      "primitives": [
        {
          "attributes": {
            "NORMAL": 18,
            "POSITION": 17,
            "TEXCOORD_0": 19,
            "TEXCOORD_1": 20
          },
          "indices": 21,
          "material": 3,
          "mode": 4
        }
      ]
    }
  ],
  "nodes": [
    {
      "children": [
        1
      ],
      "matrix": [
        1.0,
        0.0,
        0.0,
        0.0,
        0.0,
        0.005765978246927039,
        0.9999833703041077,
        0.0,
        0.0,
        -0.9999833703041077,
        0.005765978246927039,
        0.0,
        0.0,
        -0.9152736663818359,
        0.0031276757363227956,
        1.0
      ],
      "name": "Sketchfab_model"
    },
    {
      "children": [
        2
      ],
      "matrix": [
        0.009999999776482582,
        0.0,
        0.0,
        0.0,
        0.0,
        -0.009999999776482582,
        0.0,
        0.0,
        0.0,
        0.0,
        -0.009999999776482582,
        0.0,
        0.0,
        0.0,
        0.0,
        1.0
      ],
      "name": "ec0fdc17423a422da0039bb15ed2fb51.fbx"
    },
    {
      "children": [
        3
      ],
      "name": "RootNode"
    },
    {
      "children": [
        4,
        5,
        6,
        7
      ],
      "name": "SM_MERGED_vehicle_air_xwing_t65_cockpit_cutscene_mesh_Window_shader_20"
    },
    {
      "mesh": 0,
      "name": "SM_MERGED_vehicle_air_xwing_t65_cockpit_cutscene_mesh_Window_shader_20_Heroship_Glass__0"
    },
    {
      "mesh": 1,
      "name": "SM_MERGED_vehicle_air_xwing_t65_cockpit_cutscene_mesh_Window_shader_20_T_XWingCockpitScreen_01_C_Mat_0"
    },
    {
      "mesh": 2,
      "name": "SM_MERGED_vehicle_air_xwing_t65_cockpit_cutscene_mesh_Window_shader_20_T_XWingCockpit_01_CS_Mat_0"
    },
    {
      "mesh": 3,
      "name": "SM_MERGED_vehicle_air_xwing_t65_cockpit_cutscene_mesh_Window_shader_20_T_XWingCockpit_01_emissive_Mat_0"
    }
  ],
  "samplers": [
    {
      "magFilter": 9729,
      "minFilter": 9987,
      "wrapS": 10497,
      "wrapT": 10497
    }
  ],
  "scene": 0,
  "scenes": [
    {
      "name": "Sketchfab_Scene",
      "nodes": [
        0
      ]
    }
  ],
  "textures": [
    {
      "sampler": 0,
      "source": 0
    },
    {
      "sampler": 0,
      "source": 1
    },
    {
      "sampler": 0,
      "source": 2
    },
    {
      "sampler": 0,
      "source": 3
    },
    {
      "sampler": 0,
      "source": 4
    }
  ]
}
