{
    "asset" : {
        "generator" : "Khronos glTF Blender I/O v1.8.19",
        "version" : "2.0"
    },
    "scene" : 0,
    "scenes" : [
        {
            "name" : "Scene",
            "nodes" : [
                23
            ]
        }
    ],
    "nodes" : [
        {
            "name" : "Object_4",
            "translation" : [
                -13.066563606262207,
                13.619808197021484,
                0.0018534660339355469
            ]
        },
        {
            "children" : [
                0
            ],
            "name" : "Asteroid_no_1",
            "rotation" : [
                -0.7071068286895752,
                0,
                0,
                0.7071068286895752
            ],
            "translation" : [
                13.066563606262207,
                -0.0018534660339355469,
                13.619808197021484
            ]
        },
        {
            "name" : "Object_7",
            "translation" : [
                0.24348396062850952,
                -28.589397430419922,
                0.03131502866744995
            ]
        },
        {
            "children" : [
                2
            ],
            "name" : "Asteroid_no_10",
            "rotation" : [
                -0.7071068286895752,
                0,
                0,
                0.7071068286895752
            ],
            "translation" : [
                -0.24348396062850952,
                -0.03131502866744995,
                -28.589397430419922
            ]
        },
        {
            "name" : "Object_31",
            "translation" : [
                0.12822234630584717,
                13.656576156616211,
                -0.0035544633865356445
            ]
        },
        {
            "children" : [
                4
            ],
            "name" : "Asteroid_no_2",
            "rotation" : [
                -0.7071068286895752,
                0,
                0,
                0.7071068286895752
            ],
            "translation" : [
                -0.12822234630584717,
                0.0035544633865356445,
                13.656576156616211
            ]
        },
        {
            "name" : "Object_28",
            "translation" : [
                13.2041015625,
                13.617130279541016,
                -0.026331067085266113
            ]
        },
        {
            "children" : [
                6
            ],
            "name" : "Asteroid_no_3",
            "rotation" : [
                -0.7071068286895752,
                0,
                0,
                0.7071068286895752
            ],
            "translation" : [
                -13.2041015625,
                0.026331067085266113,
                13.617130279541016
            ]
        },
        {
            "name" : "Object_25",
            "translation" : [
                -12.945189476013184,
                0.10332703590393066,
                -0.00751185417175293
            ]
        },
        {
            "children" : [
                8
            ],
            "name" : "Asteroid_no_4",
            "rotation" : [
                -0.7071068286895752,
                0,
                0,
                0.7071068286895752
            ],
            "translation" : [
                12.945189476013184,
                0.00751185417175293,
                0.10332703590393066
            ]
        },
        {
            "mesh" : 0,
            "name" : "Asteroid_no_5_Material #3_0"
        },
        {
            "children" : [
                10
            ],
            "name" : "Object_22",
            "translation" : [
                0.29254329204559326,
                0.14435505867004395,
                0.024799466133117676
            ]
        },
        {
            "children" : [
                11
            ],
            "name" : "Asteroid_no_5",
            "rotation" : [
                -0.7071068286895752,
                0,
                0,
                0.7071068286895752
            ],
            "translation" : [
                -0.29254329204559326,
                -0.024799466133117676,
                0.14435505867004395
            ]
        },
        {
            "name" : "Object_19",
            "translation" : [
                13.32706069946289,
                0.1332916021347046,
                0.054341912269592285
            ]
        },
        {
            "children" : [
                13
            ],
            "name" : "Asteroid_no_6",
            "rotation" : [
                -0.7071068286895752,
                0,
                0,
                0.7071068286895752
            ],
            "translation" : [
                -13.32706069946289,
                -0.054341912269592285,
                0.1332916021347046
            ]
        },
        {
            "name" : "Object_16",
            "translation" : [
                -12.427385330200195,
                -14.439640998840332,
                0.0037854909896850586
            ]
        },
        {
            "children" : [
                15
            ],
            "name" : "Asteroid_no_7",
            "rotation" : [
                -0.7071068286895752,
                0,
                0,
                0.7071068286895752
            ],
            "translation" : [
                12.427385330200195,
                -0.0037854909896850586,
                -14.439640998840332
            ]
        },
        {
            "name" : "Object_13",
            "translation" : [
                0.8082304000854492,
                -14.436613082885742,
                -0.012844085693359375
            ]
        },
        {
            "children" : [
                17
            ],
            "name" : "Asteroid_no_8",
            "rotation" : [
                -0.7071068286895752,
                0,
                0,
                0.7071068286895752
            ],
            "translation" : [
                -0.8082304000854492,
                0.012844085693359375,
                -14.436613082885742
            ]
        },
        {
            "name" : "Object_10",
            "translation" : [
                13.874971389770508,
                -14.462640762329102,
                0.012247085571289062
            ]
        },
        {
            "children" : [
                19
            ],
            "name" : "Asteroid_no_9",
            "rotation" : [
                -0.7071068286895752,
                0,
                0,
                0.7071068286895752
            ],
            "translation" : [
                -13.874971389770508,
                -0.012247085571289062,
                -14.462640762329102
            ]
        },
        {
            "children" : [
                1,
                3,
                5,
                7,
                9,
                12,
                14,
                16,
                18,
                20
            ],
            "name" : "RootNode"
        },
        {
            "children" : [
                21
            ],
            "name" : "96c641c5173f4e829e26a7cae9eec31e.fbx",
            "rotation" : [
                0.7071068286895752,
                0,
                0,
                0.7071068286895752
            ]
        },
        {
            "children" : [
                22
            ],
            "name" : "Sketchfab_model",
            "rotation" : [
                -0.7071068286895752,
                0,
                0,
                0.7071068286895752
            ]
        }
    ],
    "materials" : [
        {
            "doubleSided" : true,
            "name" : "Material_3",
            "normalTexture" : {
                "index" : 0
            },
            "occlusionTexture" : {
                "index" : 1
            },
            "pbrMetallicRoughness" : {
                "baseColorTexture" : {
                    "index" : 2
                },
                "metallicRoughnessTexture" : {
                    "index" : 1
                },
                "roughnessFactor" : 0.6826894283294678
            }
        }
    ],
    "meshes" : [
        {
            "name" : "Asteroid_no_5_Material #3_0",
            "primitives" : [
                {
                    "attributes" : {
                        "POSITION" : 0,
                        "NORMAL" : 1,
                        "TEXCOORD_0" : 2
                    },
                    "indices" : 3,
                    "material" : 0
                }
            ]
        }
    ],
    "textures" : [
        {
            "sampler" : 0,
            "source" : 0
        },
        {
            "sampler" : 0,
            "source" : 1
        },
        {
            "sampler" : 0,
            "source" : 2
        }
    ],
    "images" : [
        {
            "mimeType" : "image/png",
            "name" : "Material_3_normal",
            "uri" : "Material_3_normal.png"
        },
        {
            "mimeType" : "image/png",
            "name" : "Material_3_metallicRoughness",
            "uri" : "Material_3_metallicRoughness.png"
        },
        {
            "mimeType" : "image/jpeg",
            "name" : "Material_3_baseColor",
            "uri" : "Material_3_baseColor.jpg"
        }
    ],
    "accessors" : [
        {
            "bufferView" : 0,
            "componentType" : 5126,
            "count" : 1156,
            "max" : [
                2.523355484008789,
                3.056586742401123,
                2.9491193294525146
            ],
            "min" : [
                -3.1084420680999756,
                -3.345296859741211,
                -2.99871826171875
            ],
            "type" : "VEC3"
        },
        {
            "bufferView" : 1,
            "componentType" : 5126,
            "count" : 1156,
            "type" : "VEC3"
        },
        {
            "bufferView" : 2,
            "componentType" : 5126,
            "count" : 1156,
            "type" : "VEC2"
        },
        {
            "bufferView" : 3,
            "componentType" : 5123,
            "count" : 5178,
            "type" : "SCALAR"
        }
    ],
    "bufferViews" : [
        {
            "buffer" : 0,
            "byteLength" : 13872,
            "byteOffset" : 0
        },
        {
            "buffer" : 0,
            "byteLength" : 13872,
            "byteOffset" : 13872
        },
        {
            "buffer" : 0,
            "byteLength" : 9248,
            "byteOffset" : 27744
        },
        {
            "buffer" : 0,
            "byteLength" : 10356,
            "byteOffset" : 36992
        }
    ],
    "samplers" : [
        {
            "magFilter" : 9729,
            "minFilter" : 9987
        }
    ],
    "buffers" : [
        {
            "byteLength" : 47348,
            "uri" : "scene.bin"
        }
    ]
}
